<?xml version="1.0" encoding="UTF-8" standalone="no"?><svg xmlns="http://www.w3.org/2000/svg" xmlns:xlink="http://www.w3.org/1999/xlink" contentScriptType="application/ecmascript" contentStyleType="text/css" height="928px" preserveAspectRatio="none" style="width:1554px;height:928px;" version="1.1" viewBox="0 0 1554 928" width="1554px" zoomAndPan="magnify"><defs><filter height="300%" id="fyo6yi54elop2" width="300%" x="-1" y="-1"><feGaussianBlur result="blurOut" stdDeviation="2.0"/><feColorMatrix in="blurOut" result="blurOut2" type="matrix" values="0 0 0 0 0 0 0 0 0 0 0 0 0 0 0 0 0 0 .4 0"/><feOffset dx="4.0" dy="4.0" in="blurOut2" result="blurOut3"/><feBlend in="SourceGraphic" in2="blurOut3" mode="normal"/></filter></defs><g><text fill="#000000" font-family="sans-serif" font-size="18" lengthAdjust="spacingAndGlyphs" textLength="337" x="609.5" y="26.708">Retrieval Flow (Request + Download)</text><rect fill="#FFFFFF" filter="url(#fyo6yi54elop2)" height="482.125" style="stroke: #000000; stroke-width: 2.0;" width="1425" x="118" y="342.1797"/><rect fill="#FFFFFF" filter="url(#fyo6yi54elop2)" height="175.7969" style="stroke: #000000; stroke-width: 2.0;" width="1203" x="128" y="366.3125"/><line style="stroke: #A80036; stroke-width: 1.0; stroke-dasharray: 5.0,5.0;" x1="27" x2="27" y1="121.25" y2="841.3047"/><line style="stroke: #A80036; stroke-width: 1.0; stroke-dasharray: 5.0,5.0;" x1="192" x2="192" y1="121.25" y2="841.3047"/><line style="stroke: #A80036; stroke-width: 1.0; stroke-dasharray: 5.0,5.0;" x1="411" x2="411" y1="121.25" y2="841.3047"/><line style="stroke: #A80036; stroke-width: 1.0; stroke-dasharray: 5.0,5.0;" x1="550" x2="550" y1="121.25" y2="841.3047"/><line style="stroke: #A80036; stroke-width: 1.0; stroke-dasharray: 5.0,5.0;" x1="655" x2="655" y1="121.25" y2="841.3047"/><line style="stroke: #A80036; stroke-width: 1.0; stroke-dasharray: 5.0,5.0;" x1="781" x2="781" y1="121.25" y2="841.3047"/><line style="stroke: #A80036; stroke-width: 1.0; stroke-dasharray: 5.0,5.0;" x1="956" x2="956" y1="121.25" y2="841.3047"/><line style="stroke: #A80036; stroke-width: 1.0; stroke-dasharray: 5.0,5.0;" x1="1133" x2="1133" y1="121.25" y2="841.3047"/><line style="stroke: #A80036; stroke-width: 1.0; stroke-dasharray: 5.0,5.0;" x1="1265" x2="1265" y1="121.25" y2="841.3047"/><line style="stroke: #A80036; stroke-width: 1.0; stroke-dasharray: 5.0,5.0;" x1="1432" x2="1432" y1="121.25" y2="841.3047"/><text fill="#000000" font-family="sans-serif" font-size="14" lengthAdjust="spacingAndGlyphs" textLength="32" x="8" y="117.9482">User</text><ellipse cx="27" cy="47.9531" fill="#FEFECE" filter="url(#fyo6yi54elop2)" rx="8" ry="8" style="stroke: #A80036; stroke-width: 2.0;"/><path d="M27,55.9531 L27,82.9531 M14,63.9531 L40,63.9531 M27,82.9531 L14,97.9531 M27,82.9531 L40,97.9531 " fill="none" filter="url(#fyo6yi54elop2)" style="stroke: #A80036; stroke-width: 2.0;"/><text fill="#000000" font-family="sans-serif" font-size="14" lengthAdjust="spacingAndGlyphs" textLength="32" x="8" y="853.2998">User</text><ellipse cx="27" cy="866.6016" fill="#FEFECE" filter="url(#fyo6yi54elop2)" rx="8" ry="8" style="stroke: #A80036; stroke-width: 2.0;"/><path d="M27,874.6016 L27,901.6016 M14,882.6016 L40,882.6016 M27,901.6016 L14,916.6016 M27,901.6016 L40,916.6016 " fill="none" filter="url(#fyo6yi54elop2)" style="stroke: #A80036; stroke-width: 2.0;"/><rect fill="#FEFECE" filter="url(#fyo6yi54elop2)" height="30.2969" style="stroke: #A80036; stroke-width: 1.5;" width="104" x="138" y="85.9531"/><text fill="#000000" font-family="sans-serif" font-size="14" lengthAdjust="spacingAndGlyphs" textLength="90" x="145" y="105.9482">RetrievalTest</text><rect fill="#FEFECE" filter="url(#fyo6yi54elop2)" height="30.2969" style="stroke: #A80036; stroke-width: 1.5;" width="104" x="138" y="840.3047"/><text fill="#000000" font-family="sans-serif" font-size="14" lengthAdjust="spacingAndGlyphs" textLength="90" x="145" y="860.2998">RetrievalTest</text><rect fill="#FEFECE" filter="url(#fyo6yi54elop2)" height="30.2969" style="stroke: #A80036; stroke-width: 1.5;" width="168" x="325" y="85.9531"/><text fill="#000000" font-family="sans-serif" font-size="14" lengthAdjust="spacingAndGlyphs" textLength="154" x="332" y="105.9482">JwtAssertionGenerator</text><rect fill="#FEFECE" filter="url(#fyo6yi54elop2)" height="30.2969" style="stroke: #A80036; stroke-width: 1.5;" width="168" x="325" y="840.3047"/><text fill="#000000" font-family="sans-serif" font-size="14" lengthAdjust="spacingAndGlyphs" textLength="154" x="332" y="860.2998">JwtAssertionGenerator</text><rect fill="#FEFECE" filter="url(#fyo6yi54elop2)" height="30.2969" style="stroke: #A80036; stroke-width: 1.5;" width="83" x="507" y="85.9531"/><text fill="#000000" font-family="sans-serif" font-size="14" lengthAdjust="spacingAndGlyphs" textLength="69" x="514" y="105.9482">GetToken</text><rect fill="#FEFECE" filter="url(#fyo6yi54elop2)" height="30.2969" style="stroke: #A80036; stroke-width: 1.5;" width="83" x="507" y="840.3047"/><text fill="#000000" font-family="sans-serif" font-size="14" lengthAdjust="spacingAndGlyphs" textLength="69" x="514" y="860.2998">GetToken</text><rect fill="#FEFECE" filter="url(#fyo6yi54elop2)" height="30.2969" style="stroke: #A80036; stroke-width: 1.5;" width="99" x="604" y="85.9531"/><text fill="#000000" font-family="sans-serif" font-size="14" lengthAdjust="spacingAndGlyphs" textLength="85" x="611" y="105.9482">GetOsfAckId</text><rect fill="#FEFECE" filter="url(#fyo6yi54elop2)" height="30.2969" style="stroke: #A80036; stroke-width: 1.5;" width="99" x="604" y="840.3047"/><text fill="#000000" font-family="sans-serif" font-size="14" lengthAdjust="spacingAndGlyphs" textLength="85" x="611" y="860.2998">GetOsfAckId</text><rect fill="#FEFECE" filter="url(#fyo6yi54elop2)" height="30.2969" style="stroke: #A80036; stroke-width: 1.5;" width="124" x="717" y="85.9531"/><text fill="#000000" font-family="sans-serif" font-size="14" lengthAdjust="spacingAndGlyphs" textLength="110" x="724" y="105.9482">GetFileFromDas</text><rect fill="#FEFECE" filter="url(#fyo6yi54elop2)" height="30.2969" style="stroke: #A80036; stroke-width: 1.5;" width="124" x="717" y="840.3047"/><text fill="#000000" font-family="sans-serif" font-size="14" lengthAdjust="spacingAndGlyphs" textLength="110" x="724" y="860.2998">GetFileFromDas</text><rect fill="#FEFECE" filter="url(#fyo6yi54elop2)" height="30.2969" style="stroke: #A80036; stroke-width: 1.5;" width="198" x="855" y="85.9531"/><text fill="#000000" font-family="sans-serif" font-size="14" lengthAdjust="spacingAndGlyphs" textLength="184" x="862" y="105.9482">RetrievalTest.downloadFile</text><rect fill="#FEFECE" filter="url(#fyo6yi54elop2)" height="30.2969" style="stroke: #A80036; stroke-width: 1.5;" width="198" x="855" y="840.3047"/><text fill="#000000" font-family="sans-serif" font-size="14" lengthAdjust="spacingAndGlyphs" textLength="184" x="862" y="860.2998">RetrievalTest.downloadFile</text><rect fill="#FEFECE" filter="url(#fyo6yi54elop2)" height="30.2969" style="stroke: #A80036; stroke-width: 1.5;" width="128" x="1067" y="85.9531"/><text fill="#000000" font-family="sans-serif" font-size="14" lengthAdjust="spacingAndGlyphs" textLength="114" x="1074" y="105.9482">WIPO OAuth2 AS</text><rect fill="#FEFECE" filter="url(#fyo6yi54elop2)" height="30.2969" style="stroke: #A80036; stroke-width: 1.5;" width="128" x="1067" y="840.3047"/><text fill="#000000" font-family="sans-serif" font-size="14" lengthAdjust="spacingAndGlyphs" textLength="114" x="1074" y="860.2998">WIPO OAuth2 AS</text><rect fill="#FEFECE" filter="url(#fyo6yi54elop2)" height="30.2969" style="stroke: #A80036; stroke-width: 1.5;" width="108" x="1209" y="85.9531"/><text fill="#000000" font-family="sans-serif" font-size="14" lengthAdjust="spacingAndGlyphs" textLength="94" x="1216" y="105.9482">WIPO DAS API</text><rect fill="#FEFECE" filter="url(#fyo6yi54elop2)" height="30.2969" style="stroke: #A80036; stroke-width: 1.5;" width="108" x="1209" y="840.3047"/><text fill="#000000" font-family="sans-serif" font-size="14" lengthAdjust="spacingAndGlyphs" textLength="94" x="1216" y="860.2998">WIPO DAS API</text><rect fill="#FEFECE" filter="url(#fyo6yi54elop2)" height="30.2969" style="stroke: #A80036; stroke-width: 1.5;" width="198" x="1331" y="85.9531"/><text fill="#000000" font-family="sans-serif" font-size="14" lengthAdjust="spacingAndGlyphs" textLength="184" x="1338" y="105.9482">Pre-signed Download Host</text><rect fill="#FEFECE" filter="url(#fyo6yi54elop2)" height="30.2969" style="stroke: #A80036; stroke-width: 1.5;" width="198" x="1331" y="840.3047"/><text fill="#000000" font-family="sans-serif" font-size="14" lengthAdjust="spacingAndGlyphs" textLength="184" x="1338" y="860.2998">Pre-signed Download Host</text><polygon fill="#A80036" points="180,148.3828,190,152.3828,180,156.3828,184,152.3828" style="stroke: #A80036; stroke-width: 1.0;"/><line style="stroke: #A80036; stroke-width: 1.0;" x1="27" x2="186" y1="152.3828" y2="152.3828"/><text fill="#000000" font-family="sans-serif" font-size="13" lengthAdjust="spacingAndGlyphs" textLength="141" x="34" y="147.3169">Run with config + CSV</text><polygon fill="#A80036" points="399,177.5156,409,181.5156,399,185.5156,403,181.5156" style="stroke: #A80036; stroke-width: 1.0;"/><line style="stroke: #A80036; stroke-width: 1.0;" x1="192" x2="405" y1="181.5156" y2="181.5156"/><text fill="#000000" font-family="sans-serif" font-size="13" lengthAdjust="spacingAndGlyphs" textLength="128" x="199" y="176.4497">generateAssertion()</text><polygon fill="#A80036" points="203,206.6484,193,210.6484,203,214.6484,199,210.6484" style="stroke: #A80036; stroke-width: 1.0;"/><line style="stroke: #A80036; stroke-width: 1.0; stroke-dasharray: 2.0,2.0;" x1="197" x2="410" y1="210.6484" y2="210.6484"/><text fill="#000000" font-family="sans-serif" font-size="13" lengthAdjust="spacingAndGlyphs" textLength="100" x="209" y="205.5825">client_assertion</text><polygon fill="#A80036" points="538.5,235.7813,548.5,239.7813,538.5,243.7813,542.5,239.7813" style="stroke: #A80036; stroke-width: 1.0;"/><line style="stroke: #A80036; stroke-width: 1.0;" x1="192" x2="544.5" y1="239.7813" y2="239.7813"/><text fill="#000000" font-family="sans-serif" font-size="13" lengthAdjust="spacingAndGlyphs" textLength="265" x="199" y="234.7153">getAccessToken(assertion, issuer, scope)</text><polygon fill="#A80036" points="1121,264.9141,1131,268.9141,1121,272.9141,1125,268.9141" style="stroke: #A80036; stroke-width: 1.0;"/><line style="stroke: #A80036; stroke-width: 1.0;" x1="550.5" x2="1127" y1="268.9141" y2="268.9141"/><text fill="#000000" font-family="sans-serif" font-size="13" lengthAdjust="spacingAndGlyphs" textLength="129" x="557.5" y="263.8481">POST /access_token</text><polygon fill="#A80036" points="561.5,294.0469,551.5,298.0469,561.5,302.0469,557.5,298.0469" style="stroke: #A80036; stroke-width: 1.0;"/><line style="stroke: #A80036; stroke-width: 1.0; stroke-dasharray: 2.0,2.0;" x1="555.5" x2="1132" y1="298.0469" y2="298.0469"/><text fill="#000000" font-family="sans-serif" font-size="13" lengthAdjust="spacingAndGlyphs" textLength="103" x="567.5" y="292.981">{access_token}</text><polygon fill="#A80036" points="203,323.1797,193,327.1797,203,331.1797,199,327.1797" style="stroke: #A80036; stroke-width: 1.0;"/><line style="stroke: #A80036; stroke-width: 1.0; stroke-dasharray: 2.0,2.0;" x1="197" x2="549.5" y1="327.1797" y2="327.1797"/><text fill="#000000" font-family="sans-serif" font-size="13" lengthAdjust="spacingAndGlyphs" textLength="36" x="209" y="322.1138">token</text><path d="M118,342.1797 L195,342.1797 L195,349.1797 L185,359.1797 L118,359.1797 L118,342.1797 " fill="#EEEEEE" style="stroke: #000000; stroke-width: 1.0;"/><rect fill="none" height="482.125" style="stroke: #000000; stroke-width: 2.0;" width="1425" x="118" y="342.1797"/><text fill="#000000" font-family="sans-serif" font-size="13" font-weight="bold" lengthAdjust="spacingAndGlyphs" textLength="32" x="133" y="355.2466">loop</text><text fill="#000000" font-family="sans-serif" font-size="11" font-weight="bold" lengthAdjust="spacingAndGlyphs" textLength="295" x="210" y="354.3901">[for each CSV row where downloaded != true]</text><path d="M128,366.3125 L192,366.3125 L192,373.3125 L182,383.3125 L128,383.3125 L128,366.3125 " fill="#EEEEEE" style="stroke: #000000; stroke-width: 1.0;"/><rect fill="none" height="175.7969" style="stroke: #000000; stroke-width: 2.0;" width="1203" x="128" y="366.3125"/><text fill="#000000" font-family="sans-serif" font-size="13" font-weight="bold" lengthAdjust="spacingAndGlyphs" textLength="19" x="143" y="379.3794">alt</text><text fill="#000000" font-family="sans-serif" font-size="11" font-weight="bold" lengthAdjust="spacingAndGlyphs" textLength="129" x="207" y="378.5229">[osf_ack_id missing]</text><polygon fill="#A80036" points="643.5,400.5781,653.5,404.5781,643.5,408.5781,647.5,404.5781" style="stroke: #A80036; stroke-width: 1.0;"/><line style="stroke: #A80036; stroke-width: 1.0;" x1="192" x2="649.5" y1="404.5781" y2="404.5781"/><text fill="#000000" font-family="sans-serif" font-size="13" lengthAdjust="spacingAndGlyphs" textLength="54" x="199" y="399.5122">getAck()</text><polygon fill="#A80036" points="1253,429.7109,1263,433.7109,1253,437.7109,1257,433.7109" style="stroke: #A80036; stroke-width: 1.0;"/><line style="stroke: #A80036; stroke-width: 1.0;" x1="655.5" x2="1259" y1="433.7109" y2="433.7109"/><text fill="#000000" font-family="sans-serif" font-size="13" lengthAdjust="spacingAndGlyphs" textLength="161" x="662.5" y="428.645">POST /requests/retrievals</text><polygon fill="#A80036" points="666.5,458.8438,656.5,462.8438,666.5,466.8438,662.5,462.8438" style="stroke: #A80036; stroke-width: 1.0;"/><line style="stroke: #A80036; stroke-width: 1.0; stroke-dasharray: 2.0,2.0;" x1="660.5" x2="1264" y1="462.8438" y2="462.8438"/><text fill="#000000" font-family="sans-serif" font-size="13" lengthAdjust="spacingAndGlyphs" textLength="99" x="672.5" y="457.7778">{requestAckId}</text><polygon fill="#A80036" points="203,487.9766,193,491.9766,203,495.9766,199,491.9766" style="stroke: #A80036; stroke-width: 1.0;"/><line style="stroke: #A80036; stroke-width: 1.0; stroke-dasharray: 2.0,2.0;" x1="197" x2="654.5" y1="491.9766" y2="491.9766"/><text fill="#000000" font-family="sans-serif" font-size="13" lengthAdjust="spacingAndGlyphs" textLength="83" x="209" y="486.9106">requestAckId</text><line style="stroke: #A80036; stroke-width: 1.0;" x1="192" x2="234" y1="521.1094" y2="521.1094"/><line style="stroke: #A80036; stroke-width: 1.0;" x1="234" x2="234" y1="521.1094" y2="534.1094"/><line style="stroke: #A80036; stroke-width: 1.0;" x1="193" x2="234" y1="534.1094" y2="534.1094"/><polygon fill="#A80036" points="203,530.1094,193,534.1094,203,538.1094,199,534.1094" style="stroke: #A80036; stroke-width: 1.0;"/><text fill="#000000" font-family="sans-serif" font-size="13" lengthAdjust="spacingAndGlyphs" textLength="148" x="199" y="516.0435">Save osf_ack_id in CSV</text><polygon fill="#A80036" points="769,566.2422,779,570.2422,769,574.2422,773,570.2422" style="stroke: #A80036; stroke-width: 1.0;"/><line style="stroke: #A80036; stroke-width: 1.0;" x1="192" x2="775" y1="570.2422" y2="570.2422"/><text fill="#000000" font-family="sans-serif" font-size="13" lengthAdjust="spacingAndGlyphs" textLength="49" x="199" y="565.1763">getUrl()</text><polygon fill="#A80036" points="1253,595.375,1263,599.375,1253,603.375,1257,599.375" style="stroke: #A80036; stroke-width: 1.0;"/><line style="stroke: #A80036; stroke-width: 1.0;" x1="781" x2="1259" y1="599.375" y2="599.375"/><text fill="#000000" font-family="sans-serif" font-size="13" lengthAdjust="spacingAndGlyphs" textLength="219" x="788" y="594.3091">POST /requests/files/url-downloads</text><polygon fill="#A80036" points="792,624.5078,782,628.5078,792,632.5078,788,628.5078" style="stroke: #A80036; stroke-width: 1.0;"/><line style="stroke: #A80036; stroke-width: 1.0; stroke-dasharray: 2.0,2.0;" x1="786" x2="1264" y1="628.5078" y2="628.5078"/><text fill="#000000" font-family="sans-serif" font-size="13" lengthAdjust="spacingAndGlyphs" textLength="114" x="798" y="623.4419">{fileDownloadUrl}</text><polygon fill="#A80036" points="203,653.6406,193,657.6406,203,661.6406,199,657.6406" style="stroke: #A80036; stroke-width: 1.0;"/><line style="stroke: #A80036; stroke-width: 1.0; stroke-dasharray: 2.0,2.0;" x1="197" x2="780" y1="657.6406" y2="657.6406"/><text fill="#000000" font-family="sans-serif" font-size="13" lengthAdjust="spacingAndGlyphs" textLength="98" x="209" y="652.5747">fileDownloadUrl</text><polygon fill="#A80036" points="944,682.7734,954,686.7734,944,690.7734,948,686.7734" style="stroke: #A80036; stroke-width: 1.0;"/><line style="stroke: #A80036; stroke-width: 1.0;" x1="192" x2="950" y1="686.7734" y2="686.7734"/><text fill="#000000" font-family="sans-serif" font-size="13" lengthAdjust="spacingAndGlyphs" textLength="232" x="199" y="681.7075">downloadFile(fileDownloadUrl, prefix)</text><polygon fill="#A80036" points="1420,711.9063,1430,715.9063,1420,719.9063,1424,715.9063" style="stroke: #A80036; stroke-width: 1.0;"/><line style="stroke: #A80036; stroke-width: 1.0;" x1="956" x2="1426" y1="715.9063" y2="715.9063"/><text fill="#000000" font-family="sans-serif" font-size="13" lengthAdjust="spacingAndGlyphs" textLength="127" x="963" y="710.8403">GET fileDownloadUrl</text><polygon fill="#A80036" points="967,741.0391,957,745.0391,967,749.0391,963,745.0391" style="stroke: #A80036; stroke-width: 1.0;"/><line style="stroke: #A80036; stroke-width: 1.0; stroke-dasharray: 2.0,2.0;" x1="961" x2="1431" y1="745.0391" y2="745.0391"/><text fill="#000000" font-family="sans-serif" font-size="13" lengthAdjust="spacingAndGlyphs" textLength="92" x="973" y="739.9731">200 PDF bytes</text><polygon fill="#A80036" points="203,770.1719,193,774.1719,203,778.1719,199,774.1719" style="stroke: #A80036; stroke-width: 1.0;"/><line style="stroke: #A80036; stroke-width: 1.0; stroke-dasharray: 2.0,2.0;" x1="197" x2="955" y1="774.1719" y2="774.1719"/><text fill="#000000" font-family="sans-serif" font-size="13" lengthAdjust="spacingAndGlyphs" textLength="60" x="209" y="769.106">saved file</text><line style="stroke: #A80036; stroke-width: 1.0;" x1="192" x2="234" y1="803.3047" y2="803.3047"/><line style="stroke: #A80036; stroke-width: 1.0;" x1="234" x2="234" y1="803.3047" y2="816.3047"/><line style="stroke: #A80036; stroke-width: 1.0;" x1="193" x2="234" y1="816.3047" y2="816.3047"/><polygon fill="#A80036" points="203,812.3047,193,816.3047,203,820.3047,199,816.3047" style="stroke: #A80036; stroke-width: 1.0;"/><text fill="#000000" font-family="sans-serif" font-size="13" lengthAdjust="spacingAndGlyphs" textLength="205" x="199" y="798.2388">Update CSV (downloaded=true)</text><!--MD5=[42f144c6f8ba6a2050e37b718a2df58f]
@startuml
title Retrieval Flow (Request + Download)

actor User
participant "RetrievalTest" as RT
participant "JwtAssertionGenerator" as JWT
participant "GetToken" as TOK
participant "GetOsfAckId" as ACK
participant "GetFileFromDas" as GFD
participant "RetrievalTest.downloadFile" as DL
participant "WIPO OAuth2 AS" as AS
participant "WIPO DAS API" as DAS
participant "Pre-signed Download Host" as DWHOST

User -> RT: Run with config + CSV
RT -> JWT: generateAssertion()
JWT - -> RT: client_assertion
RT -> TOK: getAccessToken(assertion, issuer, scope)
TOK -> AS: POST /access_token
AS - -> TOK: {access_token}
TOK - -> RT: token

loop for each CSV row where downloaded != true
  alt osf_ack_id missing
    RT -> ACK: getAck()
    ACK -> DAS: POST /requests/retrievals
    DAS - -> ACK: {requestAckId}
    ACK - -> RT: requestAckId
    RT -> RT: Save osf_ack_id in CSV
  end

  RT -> GFD: getUrl()
  GFD -> DAS: POST /requests/files/url-downloads
  DAS - -> GFD: {fileDownloadUrl}
  GFD - -> RT: fileDownloadUrl

  RT -> DL: downloadFile(fileDownloadUrl, prefix)
  DL -> DWHOST: GET fileDownloadUrl
  DWHOST - -> DL: 200 PDF bytes
  DL - -> RT: saved file
  RT -> RT: Update CSV (downloaded=true)
end

@enduml

PlantUML version 1.2020.02(Sun Mar 01 11:22:07 CET 2020)
(GPL source distribution)
Java Runtime: OpenJDK Runtime Environment
JVM: OpenJDK 64-Bit Server VM
Java Version: 21.0.8+9-Ubuntu-0ubuntu122.04.1
Operating System: Linux
Default Encoding: UTF-8
Language: en
Country: US
--></g></svg>